<svg id="Шар_1" data-name="Шар 1" xmlns="http://www.w3.org/2000/svg" viewBox="0 0 1585.01 1597.6"><defs><style>.cls-1{fill:#fff;}</style></defs><title>1</title><path class="cls-1" d="M563.59,241.22H97.5A97.5,97.5,0,0,0,0,338.72V804.81a97.5,97.5,0,0,0,97.5,97.5H563.59a97.5,97.5,0,0,0,97.5-97.5V338.72A97.5,97.5,0,0,0,563.59,241.22Zm27.5,563.59a27.54,27.54,0,0,1-27.5,27.5H97.5A27.54,27.54,0,0,1,70,804.81V338.72a27.54,27.54,0,0,1,27.5-27.5H563.59a27.54,27.54,0,0,1,27.5,27.5Z" transform="translate(0 -7.77)"/><path class="cls-1" d="M563.59,944.29H97.5A97.5,97.5,0,0,0,0,1041.79v466.08a97.5,97.5,0,0,0,97.5,97.5H563.59a97.5,97.5,0,0,0,97.5-97.5V1041.79A97.5,97.5,0,0,0,563.59,944.29Zm27.5,563.59a27.54,27.54,0,0,1-27.5,27.5H97.5a27.54,27.54,0,0,1-27.5-27.5V1041.79a27.54,27.54,0,0,1,27.5-27.5H563.59a27.54,27.54,0,0,1,27.5,27.5Z" transform="translate(0 -7.77)"/><path class="cls-1" d="M1556.45,365.9,1226.88,36.33a97.5,97.5,0,0,0-137.89,0L759.42,365.9a97.5,97.5,0,0,0,0,137.89L1089,833.37a97.5,97.5,0,0,0,137.89,0L1556.45,503.8A97.51,97.51,0,0,0,1556.45,365.9ZM1507,454.3,1177.38,783.87a27.5,27.5,0,0,1-38.9,0L808.92,454.3a27.5,27.5,0,0,1,0-38.9L1138.49,85.83a27.5,27.5,0,0,1,38.9,0L1507,415.4A27.54,27.54,0,0,1,1507,454.3Z" transform="translate(0 -7.77)"/><path class="cls-1" d="M1265.86,944.11H799.78a97.5,97.5,0,0,0-97.5,97.5V1507.7a97.5,97.5,0,0,0,97.5,97.5h466.08a97.5,97.5,0,0,0,97.5-97.5V1041.62A97.5,97.5,0,0,0,1265.86,944.11Zm27.5,563.59a27.54,27.54,0,0,1-27.5,27.5H799.78a27.54,27.54,0,0,1-27.5-27.5V1041.62a27.54,27.54,0,0,1,27.5-27.5h466.08a27.54,27.54,0,0,1,27.5,27.5Z" transform="translate(0 -7.77)"/></svg>