<svg id="Шар_1" data-name="Шар 1" xmlns="http://www.w3.org/2000/svg" viewBox="0 0 1581.72 1596.4"><defs><style>.cls-1{fill:#fff;}</style></defs><title>catalogIcon</title><path class="cls-1" d="M0,304.81V823.18a71.36,71.36,0,0,0,71.36,71.36H589.73a71.36,71.36,0,0,0,71.36-71.36V304.81a71.36,71.36,0,0,0-71.36-71.36H71.36A71.36,71.36,0,0,0,0,304.81ZM455,688.43H206.11V439.56H455Z" transform="translate(0 -1.2)"/><path class="cls-1" d="M702.27,1007.88v518.36a71.36,71.36,0,0,0,71.36,71.36H1292a71.36,71.36,0,0,0,71.36-71.36V1007.88A71.36,71.36,0,0,0,1292,936.51H773.64A71.36,71.36,0,0,0,702.27,1007.88Zm455,383.61H908.39V1142.63h248.86Z" transform="translate(0 -1.2)"/><path class="cls-1" d="M1093.35,22.1,726.82,388.64a71.36,71.36,0,0,0,0,100.93L1093.35,856.1a71.36,71.36,0,0,0,100.93,0l366.54-366.54a71.36,71.36,0,0,0,0-100.93L1194.28,22.1A71.36,71.36,0,0,0,1093.35,22.1Zm50.46,593-176-176,176-176,176,176Z" transform="translate(0 -1.2)"/><path class="cls-1" d="M0,1007.88v518.36a71.36,71.36,0,0,0,71.36,71.36H589.73a71.36,71.36,0,0,0,71.36-71.36V1007.88a71.36,71.36,0,0,0-71.36-71.36H71.36A71.36,71.36,0,0,0,0,1007.88Zm455,383.61H206.11V1142.63H455Z" transform="translate(0 -1.2)"/></svg>