<svg id="Шар_1" data-name="Шар 1" xmlns="http://www.w3.org/2000/svg" viewBox="0 0 1571.49 1585.96"><defs><style>.cls-1{fill:#fff;}</style></defs><title>contactIcon</title><path class="cls-1" d="M306.46,50.6,266.23,89.21,614.18,451.75l40.23-38.61a143.53,143.53,0,0,0,4.17-202.94L509.4,54.77A143.53,143.53,0,0,0,306.46,50.6Z" transform="translate(-4.07 -10.63)"/><path class="cls-1" d="M1183.47,945.44l-40.23,38.61,347.94,362.54,40.23-38.61a143.53,143.53,0,0,0,4.17-202.94L1386.41,949.61A143.53,143.53,0,0,0,1183.47,945.44Z" transform="translate(-4.07 -10.63)"/><path class="cls-1" d="M6.84,472.36c-18,213.26,51.8,433,210.74,598.6l278.14,289.82c171.38,178.57,409.89,256.11,639.55,231.29A354.86,354.86,0,0,0,1342.66,1495h0L988.19,1125.66l-35.73,34.29c-71.63,68.75-186.49,66.39-255.23-5.24L431.75,878.09C363,806.45,365.37,691.6,437,622.85l35.73-34.29L124.78,226h0A386.85,386.85,0,0,0,6.84,472.36Z" transform="translate(-4.07 -10.63)"/></svg>