<svg id="Шар_1" data-name="Шар 1" xmlns="http://www.w3.org/2000/svg" viewBox="0 0 1587.56 1601.86"><defs><style>.cls-1{fill:#fff;stroke:#fff;stroke-miterlimit:10;stroke-width:5px;}</style></defs><title>2</title><g id="_Група_" data-name="&lt;Група&gt;"><path id="_Складений_контур_" data-name="&lt;Складений контур&gt;" class="cls-1" d="M101.61,316.7a241.5,241.5,0,0,0-18.36,22.94C31.51,385.45-9.4,486.23,14.64,610.39,117.85,1148,570.76,1557.66,1116,1606.55c11.75,1.06,23.43,1.59,35,1.59,62.64,0,121.74-15.43,168.8-44.36a247.62,247.62,0,0,0,60.18-48.56l46.84-51.78c91.3-101,83.44-257.44-17.51-348.76l-79-71.45a246.82,246.82,0,0,0-348.75,17.5l-46.8,51.73a245.23,245.23,0,0,0-43.63,67.82A874.41,874.41,0,0,1,456.64,782.63a247,247,0,0,0,90.24-63.22l46.8-51.71a247.05,247.05,0,0,0-17.49-348.85l-79-71.38A247,247,0,0,0,148.4,264.91Zm93.87-9.22a183.53,183.53,0,0,1,259.14-12.93l79,71.39a183.58,183.58,0,0,1,13,259.18l-46.79,51.7h0a183,183,0,0,1-83,52.62l-14.23,4.27a31.73,31.73,0,0,0-19.29,44.52l6.62,13.33a938.09,938.09,0,0,0,495.9,455.11l12.31,4.83A31.75,31.75,0,0,0,939.8,1232L944,1219.6a182.56,182.56,0,0,1,37.85-64.55l46.81-51.75a183.37,183.37,0,0,1,259.11-13l79,71.45c75,67.84,80.84,184.09,13,259.11l-46.84,51.8a186.63,186.63,0,0,1-45.58,36.6c-44.9,27.57-103.67,39.68-165.61,34.06C604.48,1496.94,174.89,1108.39,77,598.38,56.26,491.46,95.19,412.93,126.42,386.22a30.69,30.69,0,0,0,2.88-2.8l2.17-2.39a35.58,35.58,0,0,0,2.58-3.25,179.61,179.61,0,0,1,14.67-18.52Z" transform="translate(-5.07 -8.78)"/><path id="_Складений_контур_2" data-name="&lt;Складений контур&gt;" class="cls-1" d="M1590.13,765.22c0-415.73-338.18-753.94-753.87-753.94a66,66,0,1,0,0,132.08c342.89,0,621.84,279,621.84,621.87a66,66,0,0,0,132,0Zm-66,34.27a34.32,34.32,0,0,1-34.3-34.27c0-360.4-293.19-653.61-653.58-653.61a34.3,34.3,0,1,1,0-68.6c398.19,0,722.13,324,722.13,722.2A34.3,34.3,0,0,1,1524.14,799.49Z" transform="translate(-5.07 -8.78)"/><path id="_Складений_контур_3" data-name="&lt;Складений контур&gt;" class="cls-1" d="M828.15,256.79a66,66,0,0,0,0,132c212,0,384.45,172.47,384.45,384.47a66,66,0,0,0,132.08,0C1344.67,488.49,1113,256.79,828.15,256.79Zm450.51,550.8a34.34,34.34,0,0,1-34.31-34.29c0-229.5-186.69-416.21-416.19-416.21a34.28,34.28,0,0,1,0-68.56c267.32,0,484.79,217.46,484.79,484.77A34.32,34.32,0,0,1,1278.65,807.59Z" transform="translate(-5.07 -8.78)"/></g></svg>