<svg id="Шар_1" data-name="Шар 1" xmlns="http://www.w3.org/2000/svg" viewBox="0 0 71.69 26.67"><defs><style>.cls-1{fill:#fff;}</style></defs><title>лого</title><path class="cls-1" d="M17.39,24v2.83H12.81a7.47,7.47,0,0,1-2.34-.25,1.57,1.57,0,0,1-.92-.76A4.74,4.74,0,0,1,9.32,24a6.42,6.42,0,0,1-3.55-1.08,4.8,4.8,0,0,1-2-2.6,17.5,17.5,0,0,1-.48-4.72V8.37a17.62,17.62,0,0,1,.28-3.63A5.79,5.79,0,0,1,4.78,2.4,5.47,5.47,0,0,1,7,.73,8.09,8.09,0,0,1,10.11.17a9,9,0,0,1,3.63.69,5.67,5.67,0,0,1,2.38,1.76,5.66,5.66,0,0,1,1,2.21,18.11,18.11,0,0,1,.24,3.41v7.58a19.07,19.07,0,0,1-.3,4.22,3.22,3.22,0,0,1-1.16,1.77,6.1,6.1,0,0,1-2.29,1q0,.78.32,1a2.72,2.72,0,0,0,1.33.2ZM11.31,6.66a7.23,7.23,0,0,0-.18-2.08.72.72,0,0,0-.74-.45.83.83,0,0,0-.73.37,5.21,5.21,0,0,0-.25,2.17v10.9a10.72,10.72,0,0,0,.17,2.51.72.72,0,0,0,.77.48.75.75,0,0,0,.79-.55,11.55,11.55,0,0,0,.17-2.61Z" transform="translate(-3.33 -0.17)"/><path class="cls-1" d="M31.87.66V5.33H28.27V24H22.2V5.33H18.61V.66Z" transform="translate(-3.33 -0.17)"/><path class="cls-1" d="M45,14.78H37.5v4.14a4.6,4.6,0,0,0,.19,1.67.73.73,0,0,0,.72.37.87.87,0,0,0,.89-.5,5.44,5.44,0,0,0,.22-1.93V16H45v1.41a12.66,12.66,0,0,1-.22,2.73,5.55,5.55,0,0,1-1,2,5.09,5.09,0,0,1-2.08,1.62,8.07,8.07,0,0,1-3.17.54,9.19,9.19,0,0,1-3.26-.53,5.22,5.22,0,0,1-2.2-1.46,5.29,5.29,0,0,1-1.09-2,13.22,13.22,0,0,1-.3-3.25V11.47a9.5,9.5,0,0,1,.68-4,4.66,4.66,0,0,1,2.22-2.22,7.83,7.83,0,0,1,3.55-.77,7.93,7.93,0,0,1,4,.93A5.12,5.12,0,0,1,44.4,7.92,11.56,11.56,0,0,1,45,12.24ZM39.2,11.66v-1.4A7.05,7.05,0,0,0,39,8.34a.63.63,0,0,0-.65-.43q-.61,0-.75.37a7.66,7.66,0,0,0-.14,2v1.4Z" transform="translate(-3.33 -0.17)"/><path class="cls-1" d="M59.82,12.09H54.33V9.89a4.33,4.33,0,0,0-.19-1.56.69.69,0,0,0-.69-.41.68.68,0,0,0-.68.36,4.62,4.62,0,0,0-.17,1.62v9a3.52,3.52,0,0,0,.26,1.54.82.82,0,0,0,.76.51.79.79,0,0,0,.8-.53,6.42,6.42,0,0,0,.21-2V16.13h5.19a30.05,30.05,0,0,1-.17,3.44,5.51,5.51,0,0,1-1,2.35,5.16,5.16,0,0,1-2.13,1.82,7.65,7.65,0,0,1-3.24.61,7.73,7.73,0,0,1-3.91-.84,4.65,4.65,0,0,1-2-2.37,12.25,12.25,0,0,1-.6-4.32V11.39a10.52,10.52,0,0,1,.49-3.68A4.77,4.77,0,0,1,49.35,5.5a7.36,7.36,0,0,1,3.89-1,7.45,7.45,0,0,1,3.89,1,4.74,4.74,0,0,1,2.15,2.44A12.74,12.74,0,0,1,59.82,12.09Z" transform="translate(-3.33 -0.17)"/><path class="cls-1" d="M67.38.66V5.91a5.25,5.25,0,0,1,1.62-1,5,5,0,0,1,1.87-.35,4.32,4.32,0,0,1,2.6.78,3.12,3.12,0,0,1,1.31,1.8A19.12,19.12,0,0,1,75,10.81V24H69.2V10.54A8.38,8.38,0,0,0,69,8.39a.8.8,0,0,0-1.46,0,6.49,6.49,0,0,0-.19,1.95V24H61.56V.66Z" transform="translate(-3.33 -0.17)"/></svg>